<svg width="40" height="40" viewBox="0 0 40 40" fill="none" xmlns="http://www.w3.org/2000/svg">
<mask id="path-1-inside-1_712_764" fill="white">
<path d="M0 19.9997C0 8.95415 8.95415 0 19.9997 0C31.0452 0 39.9993 8.95415 39.9993 19.9997C39.9993 31.0452 31.0452 39.9993 19.9997 39.9993C8.95415 39.9993 0 31.0452 0 19.9997Z"/>
</mask>
<path d="M0 19.9997C0 8.95415 8.95415 0 19.9997 0C31.0452 0 39.9993 8.95415 39.9993 19.9997C39.9993 31.0452 31.0452 39.9993 19.9997 39.9993C8.95415 39.9993 0 31.0452 0 19.9997Z" fill="#FDFDFD" fill-opacity="0.05"/>
<path d="M0 19.9997M39.9993 19.9997M39.9993 19.9997M0 19.9997M19.9997 0M39.9993 19.9997M19.9997 39.9993M0 19.9997M19.9997 39.9993V39.4402C9.26291 39.4402 0.559064 30.7364 0.559064 19.9997H0H-0.559064C-0.559064 31.3539 8.64539 40.5584 19.9997 40.5584V39.9993ZM39.9993 19.9997H39.4402C39.4402 30.7364 30.7364 39.4402 19.9997 39.4402V39.9993V40.5584C31.3539 40.5584 40.5584 31.3539 40.5584 19.9997H39.9993ZM19.9997 0V0.559064C30.7364 0.559064 39.4402 9.26291 39.4402 19.9997H39.9993H40.5584C40.5584 8.64539 31.3539 -0.559064 19.9997 -0.559064V0ZM19.9997 0V-0.559064C8.64539 -0.559064 -0.559064 8.64539 -0.559064 19.9997H0H0.559064C0.559064 9.26291 9.26291 0.559064 19.9997 0.559064V0Z" fill="#FDFDFD" fill-opacity="0.1" mask="url(#path-1-inside-1_712_764)"/>
<path d="M19.9997 25.8319L14.1677 19.9999L19.9997 14.168" stroke="#FDFDFD" stroke-width="1.66627" stroke-linecap="round" stroke-linejoin="round"/>
<path d="M25.8316 20H14.1677" stroke="#FDFDFD" stroke-width="1.66627" stroke-linecap="round" stroke-linejoin="round"/>
</svg>
