<svg width="18" height="18" viewBox="0 0 18 18" fill="none" xmlns="http://www.w3.org/2000/svg">
<g clip-path="url(#clip0_712_1609)">
<path d="M4.49878 16.4952V2.99909C4.49878 2.60137 4.65677 2.21995 4.93799 1.93873C5.21922 1.6575 5.60064 1.49951 5.99835 1.49951H11.9966C12.3944 1.49951 12.7758 1.6575 13.057 1.93873C13.3382 2.21995 13.4962 2.60137 13.4962 2.99909V16.4952H4.49878Z" stroke="#FE0D00" stroke-width="1.49957" stroke-linecap="round" stroke-linejoin="round"/>
<path d="M4.49878 8.99756H2.99921C2.6015 8.99756 2.22007 9.15555 1.93885 9.43677C1.65762 9.718 1.49963 10.0994 1.49963 10.4971V14.9959C1.49963 15.3936 1.65762 15.775 1.93885 16.0562C2.22007 16.3374 2.6015 16.4954 2.99921 16.4954H4.49878" stroke="#FE0D00" stroke-width="1.49957" stroke-linecap="round" stroke-linejoin="round"/>
<path d="M13.4962 6.74805H14.9958C15.3935 6.74805 15.7749 6.90604 16.0561 7.18726C16.3374 7.46849 16.4954 7.84991 16.4954 8.24762V14.9957C16.4954 15.3934 16.3374 15.7748 16.0561 16.0561C15.7749 16.3373 15.3935 16.4953 14.9958 16.4953H13.4962" stroke="#FE0D00" stroke-width="1.49957" stroke-linecap="round" stroke-linejoin="round"/>
<path d="M7.49792 4.49854H10.4971" stroke="#FE0D00" stroke-width="1.49957" stroke-linecap="round" stroke-linejoin="round"/>
<path d="M7.49792 7.49805H10.4971" stroke="#FE0D00" stroke-width="1.49957" stroke-linecap="round" stroke-linejoin="round"/>
<path d="M7.49792 10.4971H10.4971" stroke="#FE0D00" stroke-width="1.49957" stroke-linecap="round" stroke-linejoin="round"/>
<path d="M7.49792 13.4961H10.4971" stroke="#FE0D00" stroke-width="1.49957" stroke-linecap="round" stroke-linejoin="round"/>
</g>
<defs>
<clipPath id="clip0_712_1609">
<rect width="17.9949" height="17.9949" fill="white"/>
</clipPath>
</defs>
</svg>
