<svg width="345" height="244" viewBox="0 0 345 244" fill="none" xmlns="http://www.w3.org/2000/svg">
<path d="M136 80C136 66.7452 146.745 56 160 56H184C197.255 56 208 66.7452 208 80V104C208 117.255 197.255 128 184 128H160C146.745 128 136 117.255 136 104V80Z" fill="#FE0D00"/>
<path d="M165.058 83.4997H178.942C178.733 82.472 178.298 81.5039 177.667 80.6663H166.333C165.702 81.5039 165.267 82.472 165.058 83.4997ZM178.942 86.333H165.058C165.386 87.9319 166.256 89.3686 167.521 90.4003C168.786 91.432 170.368 91.9954 172 91.9954C173.632 91.9954 175.214 91.432 176.479 90.4003C177.744 89.3686 178.614 87.9319 178.942 86.333ZM170.583 103.333V94.7338C168.753 94.4691 167.034 93.6981 165.619 92.5079C164.204 91.3177 163.149 89.7556 162.575 87.9981C162.001 86.2405 161.929 84.3574 162.368 82.5613C162.807 80.7651 163.739 79.1274 165.06 77.833H178.94C180.261 79.1274 181.193 80.7651 181.632 82.5613C182.071 84.3574 181.999 86.2405 181.425 87.9981C180.851 89.7556 179.796 91.3177 178.381 92.5079C176.966 93.6981 175.247 94.4691 173.417 94.7338V103.333H176.25C176.626 103.333 176.986 103.482 177.252 103.748C177.517 104.014 177.667 104.374 177.667 104.75C177.667 105.125 177.517 105.486 177.252 105.751C176.986 106.017 176.626 106.166 176.25 106.166H167.75C167.374 106.166 167.014 106.017 166.748 105.751C166.483 105.486 166.333 105.125 166.333 104.75C166.333 104.374 166.483 104.014 166.748 103.748C167.014 103.482 167.374 103.333 167.75 103.333H170.583Z" fill="white"/>
<path d="M93.91 167.677C93.734 167.677 93.59 167.621 93.478 167.509C93.366 167.397 93.31 167.253 93.31 167.077V154.645H89.038C88.862 154.645 88.718 154.589 88.606 154.477C88.494 154.349 88.438 154.205 88.438 154.045V151.477C88.438 151.301 88.494 151.157 88.606 151.045C88.718 150.933 88.862 150.877 89.038 150.877H101.95C102.126 150.877 102.27 150.933 102.382 151.045C102.494 151.157 102.55 151.301 102.55 151.477V154.045C102.55 154.205 102.494 154.349 102.382 154.477C102.27 154.589 102.126 154.645 101.95 154.645H97.678V167.077C97.678 167.253 97.622 167.397 97.51 167.509C97.398 167.621 97.254 167.677 97.078 167.677H93.91ZM104.739 167.677C104.563 167.677 104.419 167.621 104.307 167.509C104.195 167.397 104.139 167.253 104.139 167.077V151.237C104.139 151.061 104.195 150.917 104.307 150.805C104.419 150.693 104.563 150.637 104.739 150.637H107.811C107.987 150.637 108.131 150.693 108.243 150.805C108.355 150.917 108.411 151.061 108.411 151.237V156.589C108.843 156.093 109.371 155.701 109.995 155.413C110.635 155.109 111.371 154.957 112.203 154.957C113.131 154.957 113.955 155.165 114.675 155.581C115.411 155.997 115.987 156.613 116.403 157.429C116.819 158.229 117.027 159.213 117.027 160.381V167.077C117.027 167.253 116.971 167.397 116.859 167.509C116.747 167.621 116.603 167.677 116.427 167.677H113.331C113.171 167.677 113.027 167.621 112.899 167.509C112.787 167.397 112.731 167.253 112.731 167.077V160.525C112.731 159.773 112.547 159.197 112.179 158.797C111.827 158.381 111.299 158.173 110.595 158.173C109.939 158.173 109.411 158.381 109.011 158.797C108.611 159.197 108.411 159.773 108.411 160.525V167.077C108.411 167.253 108.355 167.397 108.243 167.509C108.131 167.621 107.987 167.677 107.811 167.677H104.739ZM125.579 167.917C123.691 167.917 122.187 167.405 121.067 166.381C119.947 165.357 119.363 163.837 119.315 161.821C119.315 161.709 119.315 161.565 119.315 161.389C119.315 161.213 119.315 161.077 119.315 160.981C119.363 159.717 119.643 158.637 120.155 157.741C120.683 156.829 121.403 156.141 122.315 155.677C123.243 155.197 124.323 154.957 125.555 154.957C126.963 154.957 128.123 155.237 129.035 155.797C129.963 156.357 130.659 157.117 131.123 158.077C131.587 159.037 131.819 160.133 131.819 161.365V161.941C131.819 162.117 131.755 162.261 131.627 162.373C131.515 162.485 131.379 162.541 131.219 162.541H123.539C123.539 162.557 123.539 162.581 123.539 162.613C123.539 162.645 123.539 162.677 123.539 162.709C123.555 163.173 123.635 163.597 123.779 163.981C123.923 164.365 124.147 164.669 124.451 164.893C124.755 165.117 125.123 165.229 125.555 165.229C125.875 165.229 126.139 165.181 126.347 165.085C126.571 164.973 126.755 164.853 126.899 164.725C127.043 164.581 127.155 164.461 127.235 164.365C127.379 164.205 127.491 164.109 127.571 164.077C127.667 164.029 127.811 164.005 128.003 164.005H130.979C131.139 164.005 131.267 164.053 131.363 164.149C131.475 164.229 131.523 164.349 131.507 164.509C131.491 164.781 131.355 165.109 131.099 165.493C130.843 165.877 130.467 166.261 129.971 166.645C129.491 167.013 128.883 167.317 128.147 167.557C127.411 167.797 126.555 167.917 125.579 167.917ZM123.539 160.165H127.595V160.117C127.595 159.605 127.515 159.157 127.355 158.773C127.211 158.389 126.979 158.093 126.659 157.885C126.355 157.677 125.987 157.573 125.555 157.573C125.123 157.573 124.755 157.677 124.451 157.885C124.163 158.093 123.939 158.389 123.779 158.773C123.619 159.157 123.539 159.605 123.539 160.117V160.165ZM146.447 167.917C144.975 167.917 143.695 167.677 142.607 167.197C141.519 166.717 140.671 165.997 140.063 165.037C139.455 164.061 139.119 162.845 139.055 161.389C139.039 160.701 139.031 160.013 139.031 159.325C139.031 158.637 139.039 157.941 139.055 157.237C139.119 155.797 139.455 154.589 140.063 153.613C140.687 152.621 141.543 151.877 142.631 151.381C143.719 150.885 144.991 150.637 146.447 150.637C147.887 150.637 149.151 150.885 150.239 151.381C151.343 151.877 152.207 152.621 152.831 153.613C153.455 154.589 153.791 155.797 153.839 157.237C153.871 157.941 153.887 158.637 153.887 159.325C153.887 160.013 153.871 160.701 153.839 161.389C153.775 162.845 153.439 164.061 152.831 165.037C152.223 165.997 151.375 166.717 150.287 167.197C149.199 167.677 147.919 167.917 146.447 167.917ZM146.447 164.461C147.295 164.461 147.983 164.205 148.511 163.693C149.055 163.181 149.343 162.365 149.375 161.245C149.407 160.541 149.423 159.877 149.423 159.253C149.423 158.629 149.407 157.981 149.375 157.309C149.343 156.557 149.199 155.949 148.943 155.485C148.703 155.005 148.367 154.653 147.935 154.429C147.503 154.205 147.007 154.093 146.447 154.093C145.903 154.093 145.415 154.205 144.983 154.429C144.551 154.653 144.207 155.005 143.951 155.485C143.695 155.949 143.551 156.557 143.519 157.309C143.503 157.981 143.495 158.629 143.495 159.253C143.495 159.877 143.503 160.541 143.519 161.245C143.567 162.365 143.855 163.181 144.383 163.693C144.911 164.205 145.599 164.461 146.447 164.461ZM157.075 167.677C156.899 167.677 156.755 167.621 156.643 167.509C156.531 167.397 156.475 167.253 156.475 167.077V155.797C156.475 155.637 156.531 155.501 156.643 155.389C156.755 155.261 156.899 155.197 157.075 155.197H159.835C160.011 155.197 160.155 155.261 160.267 155.389C160.379 155.501 160.435 155.637 160.435 155.797V156.757C160.867 156.261 161.379 155.877 161.971 155.605C162.579 155.333 163.259 155.197 164.011 155.197H165.067C165.227 155.197 165.363 155.253 165.475 155.365C165.603 155.477 165.667 155.621 165.667 155.797V158.269C165.667 158.429 165.603 158.573 165.475 158.701C165.363 158.813 165.227 158.869 165.067 158.869H162.739C162.083 158.869 161.571 159.053 161.203 159.421C160.851 159.773 160.675 160.277 160.675 160.933V167.077C160.675 167.253 160.611 167.397 160.483 167.509C160.371 167.621 160.227 167.677 160.051 167.677H157.075ZM170.977 167.917C170.113 167.917 169.337 167.757 168.649 167.437C167.977 167.101 167.441 166.653 167.041 166.093C166.641 165.533 166.441 164.901 166.441 164.197C166.441 163.061 166.905 162.165 167.833 161.509C168.761 160.837 169.993 160.381 171.529 160.141L174.529 159.685V159.349C174.529 158.773 174.409 158.333 174.169 158.029C173.929 157.725 173.489 157.573 172.849 157.573C172.401 157.573 172.033 157.661 171.745 157.837C171.473 158.013 171.257 158.253 171.097 158.557C170.953 158.765 170.753 158.869 170.497 158.869H167.809C167.633 158.869 167.497 158.821 167.401 158.725C167.305 158.613 167.265 158.485 167.281 158.341C167.281 158.053 167.385 157.725 167.593 157.357C167.817 156.973 168.153 156.597 168.601 156.229C169.049 155.861 169.625 155.557 170.329 155.317C171.033 155.077 171.881 154.957 172.873 154.957C173.913 154.957 174.801 155.077 175.537 155.317C176.273 155.557 176.865 155.893 177.313 156.325C177.777 156.757 178.121 157.269 178.345 157.861C178.569 158.437 178.681 159.077 178.681 159.781V167.077C178.681 167.253 178.617 167.397 178.489 167.509C178.377 167.621 178.241 167.677 178.081 167.677H175.297C175.121 167.677 174.977 167.621 174.865 167.509C174.753 167.397 174.697 167.253 174.697 167.077V166.237C174.489 166.541 174.209 166.821 173.857 167.077C173.505 167.333 173.089 167.533 172.609 167.677C172.145 167.837 171.601 167.917 170.977 167.917ZM172.105 165.181C172.569 165.181 172.985 165.085 173.353 164.893C173.737 164.685 174.033 164.373 174.241 163.957C174.465 163.525 174.577 162.989 174.577 162.349V162.013L172.537 162.373C171.785 162.501 171.233 162.701 170.881 162.973C170.545 163.229 170.377 163.533 170.377 163.885C170.377 164.157 170.457 164.389 170.617 164.581C170.777 164.773 170.985 164.925 171.241 165.037C171.497 165.133 171.785 165.181 172.105 165.181ZM182.059 167.677C181.883 167.677 181.739 167.621 181.627 167.509C181.515 167.397 181.459 167.253 181.459 167.077V155.797C181.459 155.621 181.515 155.477 181.627 155.365C181.739 155.253 181.883 155.197 182.059 155.197H184.819C184.995 155.197 185.139 155.253 185.251 155.365C185.363 155.477 185.419 155.621 185.419 155.797V156.709C185.835 156.213 186.379 155.797 187.051 155.461C187.723 155.125 188.515 154.957 189.427 154.957C190.355 154.957 191.171 155.165 191.875 155.581C192.595 155.997 193.155 156.613 193.555 157.429C193.971 158.229 194.179 159.213 194.179 160.381V167.077C194.179 167.253 194.115 167.397 193.987 167.509C193.875 167.621 193.739 167.677 193.579 167.677H190.555C190.395 167.677 190.251 167.621 190.123 167.509C190.011 167.397 189.955 167.253 189.955 167.077V160.525C189.955 159.773 189.771 159.197 189.403 158.797C189.051 158.381 188.523 158.173 187.819 158.173C187.163 158.173 186.635 158.381 186.235 158.797C185.851 159.197 185.659 159.773 185.659 160.525V167.077C185.659 167.253 185.595 167.397 185.467 167.509C185.355 167.621 185.219 167.677 185.059 167.677H182.059ZM203.048 172.957C201.816 172.957 200.792 172.797 199.976 172.477C199.176 172.157 198.536 171.773 198.056 171.325C197.592 170.877 197.256 170.429 197.048 169.981C196.84 169.549 196.728 169.205 196.712 168.949C196.696 168.773 196.752 168.629 196.88 168.517C197.008 168.405 197.16 168.349 197.336 168.349H200.384C200.528 168.349 200.648 168.381 200.744 168.445C200.856 168.525 200.944 168.653 201.008 168.829C201.088 169.005 201.192 169.189 201.32 169.381C201.464 169.573 201.656 169.725 201.896 169.837C202.152 169.965 202.496 170.029 202.928 170.029C203.408 170.029 203.808 169.949 204.128 169.789C204.448 169.645 204.688 169.397 204.848 169.045C205.008 168.709 205.088 168.253 205.088 167.677V166.069C204.72 166.469 204.248 166.797 203.672 167.053C203.096 167.293 202.4 167.413 201.584 167.413C200.768 167.413 200.048 167.293 199.424 167.053C198.8 166.813 198.28 166.453 197.864 165.973C197.448 165.493 197.12 164.909 196.88 164.221C196.656 163.533 196.52 162.741 196.472 161.845C196.456 161.429 196.456 161.013 196.472 160.597C196.52 159.733 196.656 158.957 196.88 158.269C197.104 157.581 197.424 156.989 197.84 156.493C198.272 155.997 198.8 155.621 199.424 155.365C200.048 155.093 200.768 154.957 201.584 154.957C202.448 154.957 203.184 155.125 203.792 155.461C204.416 155.781 204.928 156.189 205.328 156.685V155.797C205.328 155.637 205.384 155.501 205.496 155.389C205.608 155.261 205.752 155.197 205.928 155.197H208.688C208.864 155.197 209.008 155.261 209.12 155.389C209.248 155.501 209.312 155.637 209.312 155.797V167.341C209.312 168.557 209.064 169.581 208.568 170.413C208.072 171.245 207.36 171.877 206.432 172.309C205.504 172.741 204.376 172.957 203.048 172.957ZM202.88 164.293C203.392 164.293 203.808 164.181 204.128 163.957C204.448 163.733 204.68 163.445 204.824 163.093C204.984 162.741 205.072 162.365 205.088 161.965C205.104 161.789 205.112 161.541 205.112 161.221C205.112 160.901 205.104 160.661 205.088 160.501C205.072 160.085 204.984 159.701 204.824 159.349C204.68 158.997 204.448 158.717 204.128 158.509C203.808 158.285 203.392 158.173 202.88 158.173C202.352 158.173 201.928 158.285 201.608 158.509C201.304 158.733 201.08 159.037 200.936 159.421C200.808 159.805 200.728 160.229 200.696 160.693C200.68 161.045 200.68 161.405 200.696 161.773C200.728 162.237 200.808 162.661 200.936 163.045C201.08 163.429 201.304 163.733 201.608 163.957C201.928 164.181 202.352 164.293 202.88 164.293ZM217.969 167.917C216.081 167.917 214.577 167.405 213.457 166.381C212.337 165.357 211.753 163.837 211.705 161.821C211.705 161.709 211.705 161.565 211.705 161.389C211.705 161.213 211.705 161.077 211.705 160.981C211.753 159.717 212.033 158.637 212.545 157.741C213.073 156.829 213.793 156.141 214.705 155.677C215.633 155.197 216.713 154.957 217.945 154.957C219.353 154.957 220.513 155.237 221.425 155.797C222.353 156.357 223.049 157.117 223.513 158.077C223.977 159.037 224.209 160.133 224.209 161.365V161.941C224.209 162.117 224.145 162.261 224.017 162.373C223.905 162.485 223.769 162.541 223.609 162.541H215.929C215.929 162.557 215.929 162.581 215.929 162.613C215.929 162.645 215.929 162.677 215.929 162.709C215.945 163.173 216.025 163.597 216.169 163.981C216.313 164.365 216.537 164.669 216.841 164.893C217.145 165.117 217.513 165.229 217.945 165.229C218.265 165.229 218.529 165.181 218.737 165.085C218.961 164.973 219.145 164.853 219.289 164.725C219.433 164.581 219.545 164.461 219.625 164.365C219.769 164.205 219.881 164.109 219.961 164.077C220.057 164.029 220.201 164.005 220.393 164.005H223.369C223.529 164.005 223.657 164.053 223.753 164.149C223.865 164.229 223.913 164.349 223.897 164.509C223.881 164.781 223.745 165.109 223.489 165.493C223.233 165.877 222.857 166.261 222.361 166.645C221.881 167.013 221.273 167.317 220.537 167.557C219.801 167.797 218.945 167.917 217.969 167.917ZM215.929 160.165H219.985V160.117C219.985 159.605 219.905 159.157 219.745 158.773C219.601 158.389 219.369 158.093 219.049 157.885C218.745 157.677 218.377 157.573 217.945 157.573C217.513 157.573 217.145 157.677 216.841 157.885C216.553 158.093 216.329 158.389 216.169 158.773C216.009 159.157 215.929 159.605 215.929 160.117V160.165ZM227.13 167.677C226.954 167.677 226.81 167.621 226.698 167.509C226.586 167.397 226.53 167.253 226.53 167.077V155.797C226.53 155.637 226.586 155.501 226.698 155.389C226.81 155.261 226.954 155.197 227.13 155.197H229.89C230.066 155.197 230.21 155.261 230.322 155.389C230.434 155.501 230.49 155.637 230.49 155.797V156.757C230.922 156.261 231.434 155.877 232.026 155.605C232.634 155.333 233.314 155.197 234.066 155.197H235.122C235.282 155.197 235.418 155.253 235.53 155.365C235.658 155.477 235.722 155.621 235.722 155.797V158.269C235.722 158.429 235.658 158.573 235.53 158.701C235.418 158.813 235.282 158.869 235.122 158.869H232.794C232.138 158.869 231.626 159.053 231.258 159.421C230.906 159.773 230.73 160.277 230.73 160.933V167.077C230.73 167.253 230.666 167.397 230.538 167.509C230.426 167.621 230.282 167.677 230.106 167.677H227.13ZM238.098 167.677C237.922 167.677 237.778 167.621 237.666 167.509C237.554 167.397 237.498 167.253 237.498 167.077V155.797C237.498 155.621 237.554 155.477 237.666 155.365C237.778 155.253 237.922 155.197 238.098 155.197H240.93C241.09 155.197 241.226 155.253 241.338 155.365C241.466 155.477 241.53 155.621 241.53 155.797V167.077C241.53 167.253 241.466 167.397 241.338 167.509C241.226 167.621 241.09 167.677 240.93 167.677H238.098ZM238.074 153.397C237.898 153.397 237.754 153.341 237.642 153.229C237.53 153.117 237.474 152.973 237.474 152.797V150.661C237.474 150.485 237.53 150.341 237.642 150.229C237.754 150.101 237.898 150.037 238.074 150.037H240.93C241.106 150.037 241.25 150.101 241.362 150.229C241.49 150.341 241.554 150.485 241.554 150.661V152.797C241.554 152.973 241.49 153.117 241.362 153.229C241.25 153.341 241.106 153.397 240.93 153.397H238.074ZM250.172 167.917C248.284 167.917 246.78 167.405 245.66 166.381C244.54 165.357 243.956 163.837 243.908 161.821C243.908 161.709 243.908 161.565 243.908 161.389C243.908 161.213 243.908 161.077 243.908 160.981C243.956 159.717 244.236 158.637 244.748 157.741C245.276 156.829 245.996 156.141 246.908 155.677C247.836 155.197 248.916 154.957 250.148 154.957C251.556 154.957 252.716 155.237 253.628 155.797C254.556 156.357 255.252 157.117 255.716 158.077C256.18 159.037 256.412 160.133 256.412 161.365V161.941C256.412 162.117 256.348 162.261 256.22 162.373C256.108 162.485 255.972 162.541 255.812 162.541H248.132C248.132 162.557 248.132 162.581 248.132 162.613C248.132 162.645 248.132 162.677 248.132 162.709C248.148 163.173 248.228 163.597 248.372 163.981C248.516 164.365 248.74 164.669 249.044 164.893C249.348 165.117 249.716 165.229 250.148 165.229C250.468 165.229 250.732 165.181 250.94 165.085C251.164 164.973 251.348 164.853 251.492 164.725C251.636 164.581 251.748 164.461 251.828 164.365C251.972 164.205 252.084 164.109 252.164 164.077C252.26 164.029 252.404 164.005 252.596 164.005H255.572C255.732 164.005 255.86 164.053 255.956 164.149C256.068 164.229 256.116 164.349 256.1 164.509C256.084 164.781 255.948 165.109 255.692 165.493C255.436 165.877 255.06 166.261 254.564 166.645C254.084 167.013 253.476 167.317 252.74 167.557C252.004 167.797 251.148 167.917 250.172 167.917ZM248.132 160.165H252.188V160.117C252.188 159.605 252.108 159.157 251.948 158.773C251.804 158.389 251.572 158.093 251.252 157.885C250.948 157.677 250.58 157.573 250.148 157.573C249.716 157.573 249.348 157.677 249.044 157.885C248.756 158.093 248.532 158.389 248.372 158.773C248.212 159.157 248.132 159.605 248.132 160.117V160.165Z" fill="white"/>
</svg>
