<svg width="28" height="28" viewBox="0 0 28 28" fill="none" xmlns="http://www.w3.org/2000/svg">
<path d="M17.4957 24.494V15.163C17.4957 14.8536 17.3729 14.5569 17.1541 14.3382C16.9354 14.1195 16.6387 13.9966 16.3294 13.9966H11.6638C11.3545 13.9966 11.0578 14.1195 10.8391 14.3382C10.6203 14.5569 10.4974 14.8536 10.4974 15.163V24.494" stroke="white" stroke-width="2.33277" stroke-linecap="round" stroke-linejoin="round"/>
<path d="M3.49915 11.6638C3.49906 11.3245 3.57302 10.9892 3.71585 10.6814C3.85867 10.3736 4.06694 10.1006 4.32611 9.8816L12.4908 2.88447C12.9118 2.52861 13.4453 2.33337 13.9966 2.33337C14.5479 2.33337 15.0813 2.52861 15.5024 2.88447L23.6671 9.8816C23.9263 10.1006 24.1345 10.3736 24.2773 10.6814C24.4202 10.9892 24.4941 11.3245 24.494 11.6638V22.1613C24.494 22.78 24.2483 23.3733 23.8108 23.8108C23.3733 24.2483 22.78 24.4941 22.1613 24.4941H5.83191C5.21322 24.4941 4.61988 24.2483 4.1824 23.8108C3.74492 23.3733 3.49915 22.78 3.49915 22.1613V11.6638Z" stroke="white" stroke-width="2.33277" stroke-linecap="round" stroke-linejoin="round"/>
</svg>
