<svg width="28" height="28" viewBox="0 0 28 28" fill="none" xmlns="http://www.w3.org/2000/svg">
<path d="M6.99922 25.6638V4.66608C6.99922 4.04731 7.24503 3.45389 7.68256 3.01635C8.1201 2.57881 8.71353 2.33301 9.3323 2.33301H18.6646C19.2834 2.33301 19.8768 2.57881 20.3143 3.01635C20.7519 3.45389 20.9977 4.04731 20.9977 4.66608V25.6638H6.99922Z" stroke="#FE0D00" stroke-width="2.33307" stroke-linecap="round" stroke-linejoin="round"/>
<path d="M6.99923 13.9985H4.66615C4.04738 13.9985 3.45395 14.2443 3.01642 14.6819C2.57888 15.1194 2.33308 15.7128 2.33308 16.3316V23.3308C2.33308 23.9496 2.57888 24.543 3.01642 24.9806C3.45395 25.4181 4.04738 25.6639 4.66615 25.6639H6.99923" stroke="#FE0D00" stroke-width="2.33307" stroke-linecap="round" stroke-linejoin="round"/>
<path d="M20.9977 10.499H23.3307C23.9495 10.499 24.5429 10.7448 24.9805 11.1824C25.418 11.6199 25.6638 12.2133 25.6638 12.8321V23.3309C25.6638 23.9497 25.418 24.5431 24.9805 24.9807C24.5429 25.4182 23.9495 25.664 23.3307 25.664H20.9977" stroke="#FE0D00" stroke-width="2.33307" stroke-linecap="round" stroke-linejoin="round"/>
<path d="M11.6654 6.99902H16.3315" stroke="#FE0D00" stroke-width="2.33307" stroke-linecap="round" stroke-linejoin="round"/>
<path d="M11.6654 11.6655H16.3315" stroke="#FE0D00" stroke-width="2.33307" stroke-linecap="round" stroke-linejoin="round"/>
<path d="M11.6654 16.3315H16.3315" stroke="#FE0D00" stroke-width="2.33307" stroke-linecap="round" stroke-linejoin="round"/>
<path d="M11.6654 20.9976H16.3315" stroke="#FE0D00" stroke-width="2.33307" stroke-linecap="round" stroke-linejoin="round"/>
</svg>
