<svg width="12" height="12" viewBox="0 0 12 12" fill="none" xmlns="http://www.w3.org/2000/svg">
<g clip-path="url(#clip0_1015_1124)">
<path d="M9.99475 4.9974C9.99475 7.49259 7.22671 10.0912 6.2972 10.8938C6.2106 10.9589 6.1052 10.9941 5.99685 10.9941C5.88851 10.9941 5.78311 10.9589 5.69651 10.8938C4.767 10.0912 1.99896 7.49259 1.99896 4.9974C1.99896 3.9371 2.42017 2.92022 3.16992 2.17047C3.91967 1.42072 4.93655 0.999512 5.99685 0.999512C7.05716 0.999512 8.07404 1.42072 8.82379 2.17047C9.57354 2.92022 9.99475 3.9371 9.99475 4.9974Z" stroke="#FDFDFD" stroke-width="0.999473" stroke-linecap="round" stroke-linejoin="round"/>
<path d="M5.99683 6.49647C6.82482 6.49647 7.49604 5.82525 7.49604 4.99726C7.49604 4.16927 6.82482 3.49805 5.99683 3.49805C5.16884 3.49805 4.49762 4.16927 4.49762 4.99726C4.49762 5.82525 5.16884 6.49647 5.99683 6.49647Z" stroke="#FDFDFD" stroke-width="0.999473" stroke-linecap="round" stroke-linejoin="round"/>
</g>
<defs>
<clipPath id="clip0_1015_1124">
<rect width="11.9937" height="11.9937" fill="white"/>
</clipPath>
</defs>
</svg>
