<svg width="20" height="20" viewBox="0 0 20 20" fill="none" xmlns="http://www.w3.org/2000/svg">
<path d="M16.6627 8.3316C16.6627 12.4915 12.048 16.8238 10.4983 18.1618C10.354 18.2703 10.1782 18.329 9.99761 18.329C9.81699 18.329 9.64126 18.2703 9.4969 18.1618C7.94726 16.8238 3.33252 12.4915 3.33252 8.3316C3.33252 6.56391 4.03473 4.86861 5.28468 3.61867C6.53463 2.36872 8.22992 1.6665 9.99761 1.6665C11.7653 1.6665 13.4606 2.36872 14.7105 3.61867C15.9605 4.86861 16.6627 6.56391 16.6627 8.3316Z" stroke="#FE0D00" stroke-width="1.66627" stroke-linecap="round" stroke-linejoin="round"/>
<path d="M9.9977 10.8309C11.3781 10.8309 12.4971 9.71183 12.4971 8.33144C12.4971 6.95106 11.3781 5.83203 9.9977 5.83203C8.61732 5.83203 7.49829 6.95106 7.49829 8.33144C7.49829 9.71183 8.61732 10.8309 9.9977 10.8309Z" stroke="#FE0D00" stroke-width="1.66627" stroke-linecap="round" stroke-linejoin="round"/>
</svg>
