<svg width="32" height="32" viewBox="0 0 32 32" fill="none" xmlns="http://www.w3.org/2000/svg">
<path d="M25.3315 14.6656H6.66617C5.19352 14.6656 3.99969 15.8595 3.99969 17.3321V26.6648C3.99969 28.1374 5.19352 29.3313 6.66617 29.3313H25.3315C26.8041 29.3313 27.998 28.1374 27.998 26.6648V17.3321C27.998 15.8595 26.8041 14.6656 25.3315 14.6656Z" stroke="#FDFDFD" stroke-width="2.66647" stroke-linecap="round" stroke-linejoin="round"/>
<path d="M9.33264 14.6656V9.33269C9.33264 7.56471 10.035 5.86914 11.2851 4.61898C12.5353 3.36883 14.2308 2.6665 15.9988 2.6665C17.7668 2.6665 19.4624 3.36883 20.7125 4.61898C21.9627 5.86914 22.665 7.56471 22.665 9.33269V14.6656" stroke="#FDFDFD" stroke-width="2.66647" stroke-linecap="round" stroke-linejoin="round"/>
</svg>
