<svg width="24" height="24" viewBox="0 0 24 24" fill="none" xmlns="http://www.w3.org/2000/svg">
<path d="M14.1037 5.55215C14.3813 5.69084 14.6873 5.76305 14.9976 5.76305C15.3078 5.76305 15.6139 5.69084 15.8914 5.55215L19.5498 3.72245C19.7024 3.64622 19.8719 3.61028 20.0422 3.61803C20.2126 3.62579 20.3781 3.67699 20.5231 3.76677C20.6681 3.85655 20.7877 3.98192 20.8706 4.13096C20.9535 4.28001 20.9968 4.44777 20.9966 4.6183V17.3802C20.9965 17.5659 20.9447 17.7478 20.8471 17.9057C20.7494 18.0635 20.6097 18.1911 20.4437 18.2741L15.8914 20.5507C15.6139 20.6894 15.3078 20.7616 14.9976 20.7616C14.6873 20.7616 14.3813 20.6894 14.1037 20.5507L9.89239 18.445C9.61484 18.3064 9.30882 18.2342 8.99854 18.2342C8.68826 18.2342 8.38224 18.3064 8.10468 18.445L4.44628 20.2748C4.29366 20.351 4.12405 20.387 3.95362 20.3792C3.78318 20.3714 3.61757 20.3201 3.47255 20.2302C3.32754 20.1403 3.20794 20.0148 3.12514 19.8656C3.04234 19.7164 2.99909 19.5485 2.99951 19.3779V6.61698C2.99961 6.43135 3.05139 6.24941 3.14904 6.09154C3.2467 5.93367 3.38637 5.8061 3.55242 5.72312L8.10468 3.44649C8.38224 3.3078 8.68826 3.2356 8.99854 3.2356C9.30882 3.2356 9.61484 3.3078 9.89239 3.44649L14.1037 5.55215Z" stroke="#FDFDFD" stroke-width="1.99967" stroke-linecap="round" stroke-linejoin="round"/>
<path d="M14.9976 5.76306V20.7606" stroke="#FDFDFD" stroke-width="1.99967" stroke-linecap="round" stroke-linejoin="round"/>
<path d="M8.99854 3.23547V18.233" stroke="#FDFDFD" stroke-width="1.99967" stroke-linecap="round" stroke-linejoin="round"/>
</svg>
