<svg width="20" height="20" viewBox="0 0 20 20" fill="none" xmlns="http://www.w3.org/2000/svg">
<path d="M13.3302 17.4959V15.8296C13.3302 14.9458 12.9791 14.0981 12.3541 13.4732C11.7291 12.8482 10.8815 12.4971 9.99763 12.4971H4.99881C4.11496 12.4971 3.26731 12.8482 2.64234 13.4732C2.01737 14.0981 1.66626 14.9458 1.66626 15.8296V17.4959" stroke="#FE0D00" stroke-width="1.66627" stroke-linecap="round" stroke-linejoin="round"/>
<path d="M7.49826 9.16461C9.33877 9.16461 10.8308 7.67257 10.8308 5.83206C10.8308 3.99154 9.33877 2.49951 7.49826 2.49951C5.65774 2.49951 4.16571 3.99154 4.16571 5.83206C4.16571 7.67257 5.65774 9.16461 7.49826 9.16461Z" stroke="#FE0D00" stroke-width="1.66627" stroke-linecap="round" stroke-linejoin="round"/>
<path d="M18.329 17.496V15.8297C18.3284 15.0913 18.0827 14.374 17.6303 13.7905C17.1779 13.2069 16.5445 12.7901 15.8296 12.6055" stroke="#FE0D00" stroke-width="1.66627" stroke-linecap="round" stroke-linejoin="round"/>
<path d="M13.3302 2.60791C14.047 2.79145 14.6824 3.20835 15.1361 3.79289C15.5899 4.37743 15.8361 5.09635 15.8361 5.83632C15.8361 6.57628 15.5899 7.2952 15.1361 7.87974C14.6824 8.46428 14.047 8.88118 13.3302 9.06472" stroke="#FE0D00" stroke-width="1.66627" stroke-linecap="round" stroke-linejoin="round"/>
</svg>
