<svg width="16" height="16" viewBox="0 0 16 16" fill="none" xmlns="http://www.w3.org/2000/svg">
<g clip-path="url(#clip0_1237_240)">
<path d="M10.663 13.9952V12.6623C10.663 11.9553 10.3821 11.2773 9.88222 10.7774C9.3823 10.2774 8.70425 9.99658 7.99725 9.99658H3.99863C3.29163 9.99658 2.61359 10.2774 2.11366 10.7774C1.61374 11.2773 1.33289 11.9553 1.33289 12.6623V13.9952" stroke="#FE0D00" stroke-width="1.33287" stroke-linecap="round" stroke-linejoin="round"/>
<path d="M5.9979 7.33101C7.47015 7.33101 8.66365 6.13751 8.66365 4.66526C8.66365 3.19301 7.47015 1.99951 5.9979 1.99951C4.52565 1.99951 3.33215 3.19301 3.33215 4.66526C3.33215 6.13751 4.52565 7.33101 5.9979 7.33101Z" stroke="#FE0D00" stroke-width="1.33287" stroke-linecap="round" stroke-linejoin="round"/>
<path d="M14.6617 13.995V12.6621C14.6612 12.0715 14.4646 11.4977 14.1028 11.0309C13.7409 10.5641 13.2342 10.2307 12.6624 10.083" stroke="#FE0D00" stroke-width="1.33287" stroke-linecap="round" stroke-linejoin="round"/>
<path d="M10.663 2.08594C11.2364 2.23275 11.7446 2.56624 12.1076 3.03382C12.4705 3.5014 12.6675 4.07647 12.6675 4.66838C12.6675 5.26029 12.4705 5.83536 12.1076 6.30294C11.7446 6.77052 11.2364 7.10401 10.663 7.25082" stroke="#FE0D00" stroke-width="1.33287" stroke-linecap="round" stroke-linejoin="round"/>
</g>
<defs>
<clipPath id="clip0_1237_240">
<rect width="15.9945" height="15.9945" fill="white"/>
</clipPath>
</defs>
</svg>
