<svg width="24" height="24" viewBox="0 0 24 24" fill="none" xmlns="http://www.w3.org/2000/svg">
<path d="M3 11L21 6V18L3 14V11Z" stroke="#FE0D00" stroke-width="1.99997" stroke-linecap="round" stroke-linejoin="round"/>
<path d="M11.5999 16.7997C11.4949 17.1805 11.3158 17.537 11.073 17.8486C10.8302 18.1602 10.5284 18.421 10.1848 18.616C9.84126 18.811 9.46264 18.9364 9.07059 18.9851C8.67854 19.0338 8.28074 19.0048 7.89991 18.8997C7.51908 18.7946 7.16267 18.6156 6.85103 18.3728C6.53939 18.13 6.27862 17.8282 6.08362 17.4846C5.88861 17.1411 5.76319 16.7624 5.71451 16.3704C5.66584 15.9783 5.69485 15.5805 5.79991 15.1997" stroke="#FE0D00" stroke-width="1.99997" stroke-linecap="round" stroke-linejoin="round"/>
</svg>
