<svg width="20" height="20" viewBox="0 0 20 20" fill="none" xmlns="http://www.w3.org/2000/svg">
<path d="M2.49951 9.16492L17.4967 4.99902V14.9972L2.49951 11.6645V9.16492Z" stroke="#FE0D00" stroke-width="1.66636" stroke-linecap="round" stroke-linejoin="round"/>
<path d="M9.66488 13.9974C9.57735 14.3147 9.42817 14.6117 9.22588 14.8713C9.02358 15.131 8.77213 15.3482 8.48587 15.5107C8.19961 15.6732 7.88415 15.7777 7.5575 15.8182C7.23085 15.8588 6.89942 15.8346 6.58212 15.7471C6.26481 15.6595 5.96786 15.5104 5.70821 15.3081C5.44855 15.1058 5.23129 14.8543 5.06882 14.5681C4.90634 14.2818 4.80185 13.9663 4.76129 13.6397C4.72073 13.313 4.74491 12.9816 4.83244 12.6643" stroke="#FE0D00" stroke-width="1.66636" stroke-linecap="round" stroke-linejoin="round"/>
</svg>
