<svg width="20" height="20" viewBox="0 0 20 20" fill="none" xmlns="http://www.w3.org/2000/svg">
<path d="M8.27888 12.9136C8.2045 12.6252 8.05421 12.3621 7.84366 12.1516C7.63311 11.941 7.36999 11.7907 7.08166 11.7164L1.97037 10.3983C1.88316 10.3736 1.80641 10.3211 1.75176 10.2487C1.69711 10.1764 1.66754 10.0882 1.66754 9.99759C1.66754 9.90694 1.69711 9.81877 1.75176 9.74645C1.80641 9.67412 1.88316 9.6216 1.97037 9.59685L7.08166 8.278C7.36988 8.20369 7.63294 8.05353 7.84348 7.84313C8.05403 7.63274 8.20437 7.36978 8.27888 7.08161L9.5969 1.97032C9.6214 1.88277 9.67387 1.80564 9.7463 1.7507C9.81873 1.69576 9.90714 1.66602 9.99806 1.66602C10.089 1.66602 10.1774 1.69576 10.2498 1.7507C10.3222 1.80564 10.3747 1.88277 10.3992 1.97032L11.7164 7.08161C11.7908 7.36994 11.9411 7.63306 12.1516 7.84361C12.3622 8.05417 12.6253 8.20445 12.9136 8.27883L18.0249 9.59602C18.1128 9.62026 18.1903 9.67268 18.2456 9.74521C18.3008 9.81775 18.3307 9.90641 18.3307 9.99759C18.3307 10.0888 18.3008 10.1774 18.2456 10.25C18.1903 10.3225 18.1128 10.3749 18.0249 10.3992L12.9136 11.7164C12.6253 11.7907 12.3622 11.941 12.1516 12.1516C11.9411 12.3621 11.7908 12.6252 11.7164 12.9136L10.3984 18.0249C10.3739 18.1124 10.3214 18.1895 10.249 18.2445C10.1765 18.2994 10.0881 18.3292 9.99722 18.3292C9.90631 18.3292 9.8179 18.2994 9.74547 18.2445C9.67304 18.1895 9.62057 18.1124 9.59607 18.0249L8.27888 12.9136Z" stroke="#FE0D00" stroke-width="1.66627" stroke-linecap="round" stroke-linejoin="round"/>
<path d="M16.6627 2.49951V5.83206" stroke="#FE0D00" stroke-width="1.66627" stroke-linecap="round" stroke-linejoin="round"/>
<path d="M18.329 4.16553H14.9965" stroke="#FE0D00" stroke-width="1.66627" stroke-linecap="round" stroke-linejoin="round"/>
<path d="M3.33252 14.1631V15.8294" stroke="#FE0D00" stroke-width="1.66627" stroke-linecap="round" stroke-linejoin="round"/>
<path d="M4.16566 14.9966H2.49939" stroke="#FE0D00" stroke-width="1.66627" stroke-linecap="round" stroke-linejoin="round"/>
</svg>
