<svg width="24" height="24" viewBox="0 0 24 24" fill="none" xmlns="http://www.w3.org/2000/svg">
<path d="M9.9354 15.4976C9.84614 15.1515 9.66579 14.8358 9.41311 14.5831C9.16043 14.3304 8.84465 14.1501 8.49864 14.0608L2.36464 12.4791C2.25998 12.4493 2.16788 12.3863 2.10229 12.2995C2.03671 12.2127 2.00122 12.1069 2.00122 11.9981C2.00122 11.8893 2.03671 11.7835 2.10229 11.6967C2.16788 11.6099 2.25998 11.5469 2.36464 11.5172L8.49864 9.93447C8.84453 9.84529 9.16022 9.66509 9.41289 9.41259C9.66556 9.1601 9.84598 8.84453 9.9354 8.4987L11.5171 2.3647C11.5465 2.25964 11.6095 2.16708 11.6964 2.10114C11.7834 2.0352 11.8895 1.99951 11.9986 1.99951C12.1077 1.99951 12.2138 2.0352 12.3007 2.10114C12.3876 2.16708 12.4506 2.25964 12.48 2.3647L14.0607 8.4987C14.15 8.84472 14.3303 9.16049 14.583 9.41317C14.8357 9.66585 15.1515 9.8462 15.4975 9.93547L21.6315 11.5162C21.737 11.5453 21.83 11.6082 21.8963 11.6953C21.9626 11.7823 21.9985 11.8887 21.9985 11.9981C21.9985 12.1076 21.9626 12.214 21.8963 12.301C21.83 12.3881 21.737 12.451 21.6315 12.4801L15.4975 14.0608C15.1515 14.1501 14.8357 14.3304 14.583 14.5831C14.3303 14.8358 14.15 15.1515 14.0607 15.4976L12.479 21.6316C12.4496 21.7366 12.3866 21.8292 12.2997 21.8951C12.2128 21.9611 12.1067 21.9968 11.9976 21.9968C11.8885 21.9968 11.7824 21.9611 11.6954 21.8951C11.6085 21.8292 11.5455 21.7366 11.5161 21.6316L9.9354 15.4976Z" stroke="#FDFDFD" stroke-width="1.99967" stroke-linecap="round" stroke-linejoin="round"/>
<path d="M19.9968 2.99951V6.99951" stroke="#FDFDFD" stroke-width="1.99967" stroke-linecap="round" stroke-linejoin="round"/>
<path d="M21.9971 4.99902H17.9971" stroke="#FDFDFD" stroke-width="1.99967" stroke-linecap="round" stroke-linejoin="round"/>
<path d="M3.99933 16.9971V18.9971" stroke="#FDFDFD" stroke-width="1.99967" stroke-linecap="round" stroke-linejoin="round"/>
<path d="M4.99951 17.9971H2.99951" stroke="#FDFDFD" stroke-width="1.99967" stroke-linecap="round" stroke-linejoin="round"/>
</svg>
