<svg width="24" height="24" viewBox="0 0 24 24" fill="none" xmlns="http://www.w3.org/2000/svg">
<path d="M5.99902 21.9964V3.99931C5.99902 3.46896 6.2097 2.96034 6.58471 2.58532C6.95973 2.21031 7.46835 1.99963 7.9987 1.99963H15.9974C16.5277 1.99963 17.0364 2.21031 17.4114 2.58532C17.7864 2.96034 17.9971 3.46896 17.9971 3.99931V21.9964H5.99902Z" stroke="#FDFDFD" stroke-opacity="0.6" stroke-width="1.99967" stroke-linecap="round" stroke-linejoin="round"/>
<path d="M5.99901 11.998H3.99934C3.46899 11.998 2.96037 12.2087 2.58536 12.5837C2.21034 12.9587 1.99966 13.4674 1.99966 13.9977V19.9967C1.99966 20.5271 2.21034 21.0357 2.58536 21.4107C2.96037 21.7857 3.46899 21.9964 3.99934 21.9964H5.99901" stroke="#FDFDFD" stroke-opacity="0.6" stroke-width="1.99967" stroke-linecap="round" stroke-linejoin="round"/>
<path d="M17.9971 8.99854H19.9967C20.5271 8.99854 21.0357 9.20921 21.4107 9.58423C21.7857 9.95924 21.9964 10.4679 21.9964 10.9982V19.9967C21.9964 20.5271 21.7857 21.0357 21.4107 21.4107C21.0357 21.7857 20.5271 21.9964 19.9967 21.9964H17.9971" stroke="#FDFDFD" stroke-opacity="0.6" stroke-width="1.99967" stroke-linecap="round" stroke-linejoin="round"/>
<path d="M9.99838 5.99902H13.9984" stroke="#FDFDFD" stroke-opacity="0.6" stroke-width="1.99967" stroke-linecap="round" stroke-linejoin="round"/>
<path d="M9.99838 9.99841H13.9984" stroke="#FDFDFD" stroke-opacity="0.6" stroke-width="1.99967" stroke-linecap="round" stroke-linejoin="round"/>
<path d="M9.99838 13.9977H13.9984" stroke="#FDFDFD" stroke-opacity="0.6" stroke-width="1.99967" stroke-linecap="round" stroke-linejoin="round"/>
<path d="M9.99838 17.9971H13.9984" stroke="#FDFDFD" stroke-opacity="0.6" stroke-width="1.99967" stroke-linecap="round" stroke-linejoin="round"/>
</svg>
